<?xml version="1.0" standalone="no"?>
<!DOCTYPE svg PUBLIC "-//W3C//DTD SVG 20010904//EN"
 "http://www.w3.org/TR/2001/REC-SVG-20010904/DTD/svg10.dtd">
<svg version="1.0" xmlns="http://www.w3.org/2000/svg"
 width="64.000000pt" height="99.000000pt" viewBox="0 0 64.000000 99.000000"
 preserveAspectRatio="xMidYMid meet">
<metadata>
Created by potrace 1.15, written by Peter Selinger 2001-2017
</metadata>
<g transform="translate(0.000000,99.000000) scale(0.100000,-0.100000)"
fill="#000000" stroke="none">
<path d="M0 877 l0 -84 159 -46 159 -47 153 45 c84 25 154 45 156 45 2 0 3 39
3 86 0 77 -2 85 -17 80 -43 -13 -202 -59 -248 -71 -52 -14 -69 -11 -347 71
-16 5 -18 -3 -18 -79z"/>
<path d="M204 660 c-70 -28 -134 -87 -172 -158 -30 -55 -32 -67 -32 -157 0
-90 2 -102 32 -157 38 -71 102 -131 166 -154 26 -10 51 -21 57 -26 13 -12 125
-10 125 2 0 6 7 10 15 10 31 0 94 41 147 94 67 69 92 140 86 255 -5 121 -66
219 -169 276 -72 39 -179 45 -255 15z m243 -26 c54 -26 106 -78 139 -139 16
-31 17 -38 5 -58 -13 -20 -13 -21 2 -9 39 32 34 -135 -7 -224 -63 -138 -225
-207 -369 -158 -64 22 -140 92 -174 162 -24 49 -28 68 -27 142 0 63 6 97 21
131 73 162 253 229 410 153z"/>
</g>
</svg>
